<svg xmlns="http://www.w3.org/2000/svg" width="29" height="29" viewBox="0 0 29 29">
  <defs>
    <style>
      .cls-1 {
        fill: #FFFFFF;
        fill-rule: evenodd;
      }
    </style>
  </defs>
  <path id="icon-admission-orange" class="cls-1" d="M1619.5,247a14.5,14.5,0,1,0,14.5,14.5A14.513,14.513,0,0,0,1619.5,247Zm0,27.294a12.794,12.794,0,1,1,12.79-12.794A12.8,12.8,0,0,1,1619.5,274.294Zm4.55-13.647h-3.7v-3.7a0.85,0.85,0,1,0-1.7,0v3.7h-3.7a0.853,0.853,0,0,0,0,1.706h3.7v3.7a0.85,0.85,0,1,0,1.7,0v-3.7h3.7A0.853,0.853,0,0,0,1624.05,260.647Z" transform="translate(-1605 -247)"/>
</svg>
