<svg xmlns="http://www.w3.org/2000/svg" width="7" height="11" viewBox="0 0 7 11">
  <defs>
    <style>
      .cls-1 {
        fill: #797c86;
        fill-rule: evenodd;
      }
    </style>
  </defs>
  <path id="icon-next-gray" class="cls-1" d="M304.723,35a0.788,0.788,0,0,1-.519-0.189,0.589,0.589,0,0,1,0-.911l5.02-4.4-5.02-4.4a0.589,0.589,0,0,1,0-.911,0.809,0.809,0,0,1,1.039,0l5.539,4.858s0,0,0,0h0s0,0,0,0h0a0.6,0.6,0,0,1,.213.444h0a0.6,0.6,0,0,1-.213.444h0s0,0,0,0l-5.539,4.858A0.79,0.79,0,0,1,304.723,35Z" transform="translate(-304 -24)"/>
</svg>
