<svg xmlns="http://www.w3.org/2000/svg" width="12" height="7.03" viewBox="0 0 12 7.03">
  <defs>
    <style>
      .cls-1 {
        fill: #fff;
        fill-rule: evenodd;
      }
    </style>
  </defs>
  <path id="icon-sort-up" class="cls-1" d="M2381,1187.27a0.734,0.734,0,0,1-.21.52,0.672,0.672,0,0,1-.99,0l-4.8-5.02-4.81,5.02a0.672,0.672,0,0,1-.99,0,0.769,0.769,0,0,1,0-1.04l5.3-5.54h0a0.683,0.683,0,0,1,.49-0.21h0.02a0.661,0.661,0,0,1,.48.21h0l5.3,5.54A0.769,0.769,0,0,1,2381,1187.27Z" transform="translate(-2369 -1181)"/>
</svg>
