<svg xmlns="http://www.w3.org/2000/svg" width="7.031" height="11" viewBox="0 0 7.031 11">
  <defs>
    <style>
      .cls-1 {
        fill: #797c86;
        fill-rule: evenodd;
      }
    </style>
  </defs>
  <path id="icon-previous-gray" class="cls-1" d="M56.277,35a0.788,0.788,0,0,0,.519-0.189,0.59,0.59,0,0,0,0-.911l-5.02-4.4,5.02-4.4a0.589,0.589,0,0,0,0-.911,0.809,0.809,0,0,0-1.039,0l-5.539,4.858h0s0,0,0,0h0a0.605,0.605,0,0,0-.212.444h0a0.605,0.605,0,0,0,.212.444h0l5.539,4.858A0.787,0.787,0,0,0,56.277,35Z" transform="translate(-50 -24)"/>
</svg>
