<svg xmlns="http://www.w3.org/2000/svg" width="13" height="13" viewBox="0 0 13 13">
  <defs>
    <style>
      .cls-1 {
        fill: #FFFFFF;
        fill-rule: evenodd;
      }
    </style>
  </defs>
  <path id="icon-export" class="cls-1" d="M2558.64,135h-8.28a2.366,2.366,0,0,1-2.36-2.364v-8.273a2.365,2.365,0,0,1,2.36-2.363h4.44a0.591,0.591,0,0,1,0,1.181h-4.44a1.183,1.183,0,0,0-1.18,1.182v8.273a1.183,1.183,0,0,0,1.18,1.182h8.28a1.183,1.183,0,0,0,1.18-1.182v-5.017a0.587,0.587,0,0,1,.59-0.591,0.594,0.594,0,0,1,.59.591v5.017A2.366,2.366,0,0,1,2558.64,135Zm-6.95-3.1a0.606,0.606,0,0,1-.42-0.173,0.593,0.593,0,0,1,0-.836l4.61-4.612h-3.28a0.591,0.591,0,0,1,0-1.182h4.72a0.628,0.628,0,0,1,.21.042h0a0.629,0.629,0,0,1,.2.131,0.562,0.562,0,0,1,.13.194,0.739,0.739,0,0,1,.04.214h0V130.4a0.59,0.59,0,1,1-1.18,0v-3.285l-4.61,4.613A0.606,0.606,0,0,1,2551.69,131.9Z" transform="translate(-2548 -122)"/>
</svg>
