<svg xmlns="http://www.w3.org/2000/svg" width="15" height="15" viewBox="0 0 15 15">
  <defs>
    <style>
      .cls-1 {
        fill: #fff;
        fill-rule: evenodd;
      }
    </style>
  </defs>
  <path id="icon-send-file" class="cls-1" d="M2543.93,1065a0.97,0.97,0,0,1-.96-0.7l-1.3-4.56a0.586,0.586,0,0,0-.42-0.4l-4.55-1.28a0.94,0.94,0,0,1-.7-0.86,1.352,1.352,0,0,1,.81-1.3l12.68-5.79a1.066,1.066,0,0,1,1.35.33,1.084,1.084,0,0,1,.04,1.05l-5.73,12.69A1.4,1.4,0,0,1,2543.93,1065Zm-6.72-7.99,4.36,1.22a1.723,1.723,0,0,1,1.21,1.2l1.25,4.36a0.351,0.351,0,0,0,.07-0.09l5.62-12.42-12.43,5.67A0.156,0.156,0,0,0,2537.21,1057.01Z" transform="translate(-2536 -1050)"/>
</svg>
