<svg xmlns="http://www.w3.org/2000/svg" width="27" height="28" viewBox="0 0 27 28">
  <defs>
    <style>
      .cls-1 {
        fill: #FFFFFF;
        fill-rule: evenodd;
      }
    </style>
  </defs>
  <path id="icon-settings-white" class="cls-1" d="M1610.41,492.126v-14.3a0.83,0.83,0,0,0-1.66,0v14.3A3.58,3.58,0,1,0,1610.41,492.126Zm-0.83,5.394a1.922,1.922,0,1,1,1.93-1.921A1.931,1.931,0,0,1,1609.58,497.52Zm0,2.2a0.832,0.832,0,0,0-.83.824v3.636a0.83,0.83,0,0,0,1.66,0V500.54A0.826,0.826,0,0,0,1609.58,499.716Zm20.66-11.913v-9.98a0.825,0.825,0,0,0-1.65,0v9.98A3.585,3.585,0,1,0,1630.24,487.8Zm-0.82,5.395a1.922,1.922,0,1,1,1.93-1.922A1.925,1.925,0,0,1,1629.42,493.2Zm0,2.2a0.825,0.825,0,0,0-.83.823v7.959a0.825,0.825,0,0,0,1.65,0v-7.959A0.823,0.823,0,0,0,1629.42,495.394Zm-9.09-13.105v-4.466a0.83,0.83,0,0,0-1.66,0v4.466A3.58,3.58,0,1,0,1620.33,482.289Zm-0.83,5.393a1.921,1.921,0,1,1,1.93-1.921A1.93,1.93,0,0,1,1619.5,487.682Zm0,2.221a0.826,0.826,0,0,0-.83.824v13.449a0.83,0.83,0,0,0,1.66,0V490.727A0.826,0.826,0,0,0,1619.5,489.9Z" transform="translate(-1606 -477)"/>
</svg>
