<svg xmlns="http://www.w3.org/2000/svg" width="37" height="29" viewBox="0 0 37 29">
  <defs>
    <style>
      .cls-1 {
        fill: #FFFFFF;
        fill-rule: evenodd;
      }
    </style>
  </defs>
  <path id="icon-filetransfers-orange" class="cls-1" d="M1610.75,387.994a0.982,0.982,0,0,1-.97-1V365.41l-8.12,8.292a0.958,0.958,0,0,1-1.38,0,1.019,1.019,0,0,1,0-1.414l9.78-10a0.094,0.094,0,0,1,.01-0.01h0a1,1,0,0,1,.31-0.208,0.927,0.927,0,0,1,.36-0.075h0.03a0.927,0.927,0,0,1,.36.075,1.132,1.132,0,0,1,.31.208h0s0,0.006.01,0.01l9.78,10a1.019,1.019,0,0,1,0,1.414,0.958,0.958,0,0,1-1.38,0l-8.12-8.292V387A0.99,0.99,0,0,1,1610.75,387.994ZM1626.17,391h-0.02a1.054,1.054,0,0,1-.36-0.075,0.959,0.959,0,0,1-.3-0.208h0c-0.01,0-.01-0.006-0.01-0.01l-9.84-10.055a1.019,1.019,0,0,1,0-1.414,0.958,0.958,0,0,1,1.38,0l8.17,8.349V366a0.98,0.98,0,1,1,1.96,0v21.585l8.17-8.349a0.958,0.958,0,0,1,1.38,0,1.019,1.019,0,0,1,0,1.414l-9.84,10.055s0,0.007-.01.01h0a0.9,0.9,0,0,1-.31.208,0.964,0.964,0,0,1-.36.075h-0.01Z" transform="translate(-1600 -362)"/>
</svg>
