<svg xmlns="http://www.w3.org/2000/svg" width="17.97" height="19" viewBox="0 0 17.97 19">
  <defs>
    <style>
      .cls-1 {
        fill: #fff;
        fill-rule: evenodd;
      }
    </style>
  </defs>
  <path id="icon-trashcan-white" class="cls-1" d="M1998.48,2150.72a0.751,0.751,0,0,0-.76.75v4.37a0.751,0.751,0,0,0,.76.75,0.76,0.76,0,0,0,.77-0.75v-4.37A0.76,0.76,0,0,0,1998.48,2150.72Zm10.47-4.85h-5.13a3.1,3.1,0,0,0-6.19,0h-5.13a0.758,0.758,0,0,0-.76.75,0.749,0.749,0,0,0,.76.74h0.73v10.98a3.716,3.716,0,0,0,3.76,3.66h7.47a3.716,3.716,0,0,0,3.76-3.66v-10.98h0.73a0.749,0.749,0,0,0,.76-0.74A0.758,0.758,0,0,0,2008.95,2145.87Zm-8.22-1.38a1.562,1.562,0,0,1,1.56,1.38h-3.13A1.565,1.565,0,0,1,2000.73,2144.49Zm5.96,13.85a2.2,2.2,0,0,1-2.23,2.17h-7.47a2.2,2.2,0,0,1-2.23-2.17v-10.93h11.93v10.93Zm-4.48-6.87v4.37a0.76,0.76,0,0,0,1.52,0v-4.37A0.76,0.76,0,0,0,2002.21,2151.47Z" transform="translate(-1991.75 -2143)"/>
</svg>
