<svg xmlns="http://www.w3.org/2000/svg" width="31.03" height="28" viewBox="0 0 31.03 28">
  <defs>
    <style>
      .cls-1 {
        fill: #FFFFFF;
        fill-rule: evenodd;
      }
    </style>
  </defs>
  <path id="icon-activities" class="cls-1" d="M1621.12,132a13.924,13.924,0,0,0-13.47,10.643l-2.19-2.9a0.82,0.82,0,0,0-1.15-.155,0.84,0.84,0,0,0-.15,1.155l3.23,4.268a0.983,0.983,0,0,0,.17.171,0.829,0.829,0,0,0,.33.145,0.723,0.723,0,0,0,.16.016,0.921,0.921,0,0,0,.2-0.024,0.9,0.9,0,0,0,.21-0.09l4.73-2.739a0.836,0.836,0,0,0,.31-1.125,0.822,0.822,0,0,0-1.12-.3l-3.09,1.792a12.321,12.321,0,1,1,.35,7.459,0.814,0.814,0,0,0-1.05-.484,0.825,0.825,0,0,0-.48,1.059A13.9,13.9,0,1,0,1621.12,132Zm-0.1,5.011a0.823,0.823,0,0,0-.82.823v8.236a0.832,0.832,0,0,0,.32.654l4.63,3.568a0.785,0.785,0,0,0,.49.17,0.808,0.808,0,0,0,.65-0.324,0.829,0.829,0,0,0-.15-1.154l-4.31-3.321v-7.829A0.815,0.815,0,0,0,1621.02,137.011Z" transform="translate(-1603.97 -132)"/>
</svg>
