<svg xmlns="http://www.w3.org/2000/svg" width="16" height="16" viewBox="0 0 16 16">
  <defs>
    <style>
      .cls-1 {
        fill: #646464;
        fill-rule: evenodd;
      }
    </style>
  </defs>
  <path id="icon-dateselect" class="cls-1" d="M2066.54,2223.23h-1.23v-0.61a0.615,0.615,0,0,0-.61-0.62,0.623,0.623,0,0,0-.62.62v0.61h-5.23v-0.61a0.623,0.623,0,0,0-.62-0.62,0.615,0.615,0,0,0-.61.62v0.61h-2.16a2.458,2.458,0,0,0-2.46,2.46v9.85a2.458,2.458,0,0,0,2.46,2.46h11.08a2.458,2.458,0,0,0,2.46-2.46v-9.85A2.458,2.458,0,0,0,2066.54,2223.23Zm1.23,12.31a1.229,1.229,0,0,1-1.23,1.23h-11.08a1.229,1.229,0,0,1-1.23-1.23v-7.39h13.54v7.39Zm0-8.62h-13.54v-1.23a1.229,1.229,0,0,1,1.23-1.23h11.08a1.229,1.229,0,0,1,1.23,1.23v1.23Z" transform="translate(-2053 -2222)"/>
</svg>
