<svg xmlns="http://www.w3.org/2000/svg" width="12" height="7" viewBox="0 0 12 7">
  <defs>
    <style>
      .cls-1 {
        fill: #fff;
        fill-rule: evenodd;
      }
    </style>
  </defs>
  <path id="icon-sort-down" class="cls-1" d="M2322,1181.73a0.734,0.734,0,0,1,.21-0.52,0.672,0.672,0,0,1,.99,0l4.8,5.02,4.81-5.02a0.672,0.672,0,0,1,.99,0,0.769,0.769,0,0,1,0,1.04l-5.3,5.54h0a0.683,0.683,0,0,1-.49.21h-0.02a0.661,0.661,0,0,1-.48-0.21h0l-5.3-5.54A0.769,0.769,0,0,1,2322,1181.73Z" transform="translate(-2322 -1181)"/>
</svg>
