<svg xmlns="http://www.w3.org/2000/svg" width="13" height="13" viewBox="0 0 13 13">
  <defs>
    <style>
      .cls-1 {
        fill: #fff;
        fill-rule: evenodd;
      }
    </style>
  </defs>
  <path id="icon-import-white" class="cls-1" d="M2148.36,2089h8.28a2.364,2.364,0,0,0,2.36-2.36v-8.28a2.364,2.364,0,0,0-2.36-2.36h-4.44a0.59,0.59,0,1,0,0,1.18h4.44a1.182,1.182,0,0,1,1.18,1.18v8.28a1.182,1.182,0,0,1-1.18,1.18h-8.28a1.182,1.182,0,0,1-1.18-1.18v-5.02a0.585,0.585,0,0,0-.59-0.59,0.591,0.591,0,0,0-.59.59v5.02A2.364,2.364,0,0,0,2148.36,2089Zm1.25-9.99a0.6,0.6,0,0,0-.43,1.03l4.74,4.74h-3.37a0.606,0.606,0,0,0-.61.61,0.612,0.612,0,0,0,.61.61h4.85a0.717,0.717,0,0,0,.21-0.05h0a0.571,0.571,0,0,0,.21-0.13,0.625,0.625,0,0,0,.13-0.2,0.538,0.538,0,0,0,.04-0.22h0v-4.85a0.605,0.605,0,1,0-1.21,0v3.37l-4.74-4.74A0.588,0.588,0,0,0,2149.61,2079.01Z" transform="translate(-2146 -2076)"/>
</svg>
