<svg xmlns="http://www.w3.org/2000/svg" width="17.97" height="17.06" viewBox="0 0 17.97 17.06">
  <defs>
    <style>
      .cls-1 {
        fill: #fff;
        fill-rule: evenodd;
      }
    </style>
  </defs>
  <path id="icon-edit-white" class="cls-1" d="M1961.71,2145.84l-1.22-1.15a3.581,3.581,0,0,0-4.88,0l-10.3,9.76a1.588,1.588,0,0,0-.51,1.13l-0.05,3.54a1.552,1.552,0,0,0,.5,1.17,1.716,1.716,0,0,0,1.22.49h0.03l3.72-.07a1.788,1.788,0,0,0,1.19-.48l10.3-9.76A3.158,3.158,0,0,0,1961.71,2145.84Zm-11.52,13.24-3.71.06,0.05-3.53,7.99-7.58,3.77,3.37Zm10.3-9.77-0.98.93-3.77-3.36,1.09-1.04a1.818,1.818,0,0,1,2.44,0l1.22,1.16A1.584,1.584,0,0,1,1960.49,2149.31Z" transform="translate(-1944.75 -2143.72)"/>
</svg>
