<svg xmlns="http://www.w3.org/2000/svg" width="26" height="27" viewBox="0 0 26 27">
  <defs>
    <style>
      .cls-1 {
        fill: #FFFFFF;
        fill-rule: evenodd;
      }
    </style>
  </defs>
  <path id="icon-quit-white" class="cls-1" d="M1631,618.149a0.951,0.951,0,0,0-.96.942v0.781a3.081,3.081,0,0,1-2.88,3.244h-15.37a3.088,3.088,0,0,1-2.88-3.244V603.128a3.087,3.087,0,0,1,2.88-3.244h15.37a3.08,3.08,0,0,1,2.88,3.244v1.064a0.96,0.96,0,0,0,1.92,0v-1.064a4.975,4.975,0,0,0-4.8-5.128h-15.37a4.982,4.982,0,0,0-4.8,5.128v16.744a4.983,4.983,0,0,0,4.8,5.128h15.37a4.976,4.976,0,0,0,4.8-5.128v-0.781A0.951,0.951,0,0,0,1631,618.149Zm1.73-7.328c-0.01,0-.01-0.006-0.01-0.009l-4.85-4.718a0.975,0.975,0,0,0-1.36,0,0.929,0.929,0,0,0,.01,1.332l3.19,3.108h-8a0.942,0.942,0,1,0,0,1.884h8.03l-3.19,3.148a0.928,0.928,0,0,0,.01,1.331,0.963,0.963,0,0,0,1.35,0l4.81-4.754a0.912,0.912,0,0,0,.28-0.663A0.939,0.939,0,0,0,1632.73,610.821Z" transform="translate(-1607 -598)"/>
</svg>
